# xmcd
#
# Track frame offsets: 
#        150
#        22496
#        51054
#        67329
#        87871
#        104735
#        120953
#        145401
#        164454
#        185636
#        203097
#
# Disc length: 2899 seconds
#
# Revision: 0
# Processed by: cddbd v1.5.2PL0 Copyright (c) Steve Scherf et al.
# Submitted via: ExactAudioCopy v1.3
#
DISCID=a80b510b
DTITLE=Gary Hoey - Neon Highway Blues
DYEAR=2019
DGENRE=Blues Rock
TTITLE0=Under The Rug  (Feat. Eric Gales)
TTITLE1=Mercy Of Love (Feat. Josh Smith)
TTITLE2=Your Kind Of Love
TTITLE3=Don't Come Crying (Feat. Ian Hoey)
TTITLE4=Still Believe In Love
TTITLE5=Almost Heaven
TTITLE6=I Felt Alive
TTITLE7=Waiting On The Sun
TTITLE8=Damned If I Do (Feat. Lance Lopez)
TTITLE9=Living The Highlife
TTITLE10=Neon Highway Blues
EXTD=
EXTT0=
EXTT1=
EXTT2=
EXTT3=
EXTT4=
EXTT5=
EXTT6=
EXTT7=
EXTT8=
EXTT9=
EXTT10=
PLAYORDER=
